# xmcd
#
# Track frame offsets:
# 150
# 19335
# 37541
# 59280
# 83237
# 103470
# 126703
# 148585
# 168990
# 188669
# 207865
# 225980
#
# Disc length: 3354 seconds
#
#
# Revision: 0
# Processed by: cddbd v1.5.2PL0 Copyright (c) Steve Scherf et al.
# Submitted via: FreeRIP 2.941 
#
DISCID=a00d180c
DTITLE=브리지임팩트 프레이즈 - 2nd
DYEAR=1900
DGENRE=
TTITLE0=Can't stop
TTITLE1=주 닮기 원하네
TTITLE2=더 사랑하게 하소서
TTITLE3=주님 내 곁에 오셔서 감사해요
TTITLE4=I love you
TTITLE5=왕으로 구원자로
TTITLE6=말씀하소서
TTITLE7=하루
TTITLE8=그날까지
TTITLE9=Can't stop
TTITLE10=주의 자비가 내려와
TTITLE11=주님 내 곁에 오셔서 감사해요
EXTD=
EXTT0=
EXTT1=
EXTT2=
EXTT3=
EXTT4=
EXTT5=
EXTT6=
EXTT7=
EXTT8=
EXTT9=
EXTT10=
EXTT11=
PLAYORDER=
